<svg width="56" height="50" viewBox="0 0 56 50" fill="none" xmlns="http://www.w3.org/2000/svg">
<path d="M54.8315 19.4122C54.0439 18.9987 53.0348 19.5972 52.7119 20.0355C52.6818 20.0734 52.6392 20.1143 52.5872 20.1681C52.2088 20.5572 51.4216 21.3677 50.3611 23.6109C49.0955 26.2859 47.669 29.074 45.3909 31.1811C44.7946 31.7419 44.0852 32.1713 43.3093 32.441C42.5335 32.7107 41.7088 32.8146 40.8895 32.7458C40.7856 32.7019 40.6876 32.645 40.5982 32.5766C40.7717 32.2382 41.7255 31.4536 43.7873 30.542C47.3128 29.0477 47.7116 26.4443 47.7536 26.0144C47.857 25.3494 48.101 23.6755 46.9432 23.2181C46.03 22.8582 45.056 23.6573 44.4479 24.5261C43.8897 25.2004 43.1551 25.7098 42.3245 25.9985C41.4662 26.3636 40.5835 26.647 39.6485 26.9467C38.2987 27.3373 36.987 27.8473 35.7293 28.4704C33.5358 29.6708 31.8663 31.6307 31.0406 33.9748C30.2412 36.0053 29.9382 38.1943 30.1564 40.363C30.6374 44.7767 32.2072 47.1973 33.4397 48.4504C33.5597 48.5743 33.7039 48.6727 33.8635 48.7398C34.023 48.8069 34.1947 48.8412 34.368 48.8407C34.5586 48.8393 34.7466 48.7969 34.919 48.7163C35.1687 48.6005 35.3759 48.4105 35.5118 48.1727C35.6476 47.935 35.7054 47.6613 35.6772 47.3895C35.6627 47.0577 35.5721 46.7334 35.4124 46.4414C35.386 46.3897 35.355 46.3281 35.3177 46.2494C34.9011 45.3866 34.842 44.3966 35.153 43.4912L35.1772 43.4347C35.6372 42.3326 36.6809 42.0406 39.2082 41.4298C40.3027 41.1651 41.665 40.8354 43.2573 40.324C50.4157 37.7737 52.4598 32.3964 53.3742 28.5734C54.1164 25.4736 55.1684 22.1368 55.1684 22.1368C55.3609 21.6075 55.9471 19.9974 54.8315 19.4122Z" fill="#FDB5E9"/>
<path d="M20.9359 28.5411C19.6722 27.93 18.3557 27.4326 17.0022 27.055C16.0645 26.7643 15.1791 26.4893 14.3173 26.1324C13.484 25.8517 12.7445 25.3494 12.1798 24.6805C11.5639 23.8175 10.5827 23.0303 9.67212 23.3965C8.51883 23.865 8.77877 25.5364 8.88862 26.2004C8.9347 26.6299 9.35763 29.229 12.886 30.6845C14.9675 31.5811 15.9296 32.3568 16.1065 32.6937C16.1335 32.7468 15.7708 32.8703 15.7193 32.8757C15.6072 32.8874 15.4935 32.8911 15.3808 32.893C15.0217 32.8985 14.6629 32.8708 14.309 32.8104C13.2123 32.6228 12.191 32.1336 11.3615 31.3986C11.3411 31.3806 11.3209 31.3625 11.3007 31.3442C9.00252 29.259 7.54935 26.4848 6.2582 23.822C5.17621 21.5891 4.38125 20.7862 3.99921 20.4007C3.94668 20.3475 3.9037 20.307 3.87321 20.2693C3.54615 19.8338 2.5314 19.2453 1.74771 19.6664C0.637785 20.2622 1.23943 21.8666 1.42524 22.3604C1.43577 22.3936 2.52092 25.7206 3.2924 28.8131C4.24374 32.6272 6.33935 37.9847 13.5476 40.4748C15.1189 40.9624 16.4843 41.279 17.5813 41.5332C20.1144 42.1197 21.1609 42.4017 21.6284 43.4924L21.6633 43.5716C21.9765 44.47 21.9244 45.4539 21.5179 46.3149C21.4813 46.3944 21.4509 46.4563 21.425 46.5082C21.2682 46.8015 21.1808 47.1263 21.1693 47.458C21.1436 47.7301 21.204 48.0034 21.3421 48.24C21.4802 48.4766 21.6893 48.6647 21.9402 48.7783C22.1133 48.8572 22.3018 48.8978 22.4924 48.8974C22.6657 48.8962 22.837 48.8603 22.9959 48.7917C23.1548 48.7231 23.298 48.6232 23.4169 48.4982C24.6373 47.2333 26.1838 44.7979 26.6225 40.3797C26.8199 38.209 26.4959 36.023 25.6772 34.0002C24.829 31.6643 23.1408 29.7204 20.9359 28.5411Z" fill="#FDB5E9"/>
<path d="M41.1475 3.67129C39.4716 1.95402 37.1921 0.942717 34.7829 0.847588C32.3737 0.752459 30.0201 1.58083 28.2113 3.1605C26.3874 1.59824 24.0259 0.792464 21.6177 0.91068C19.2095 1.02889 16.9398 2.062 15.2805 3.79525C13.5016 5.65709 12.5158 8.12667 12.5281 10.6902C12.5403 13.2537 13.5498 15.7137 15.3464 17.5584L27.7302 30.0898C27.8098 30.1704 27.9049 30.2342 28.01 30.2777C28.115 30.3211 28.2277 30.3432 28.3415 30.3427C28.4553 30.3421 28.5679 30.3189 28.6724 30.2745C28.777 30.2301 28.8716 30.1653 28.9504 30.084L41.2134 17.4344C42.9923 15.5726 43.9782 13.103 43.9659 10.5395C43.9536 7.97601 42.9441 5.51599 41.1475 3.67129Z" fill="#FDB5E9"/>
</svg>
