<svg width="257" height="139" viewBox="0 0 257 139" fill="none" xmlns="http://www.w3.org/2000/svg">
<path d="M22.352 1.6C27.584 1.6 31.904 3.328 35.312 6.784C38.72 10.192 40.424 14.536 40.424 19.816C40.424 25.096 38.72 29.464 35.312 32.92C31.904 36.328 27.584 38.032 22.352 38.032H12.56V52H0.896V1.6H22.352ZM20.552 28.528C22.904 28.528 24.824 27.712 26.312 26.08C27.848 24.448 28.616 22.36 28.616 19.816C28.616 17.272 27.848 15.184 26.312 13.552C24.824 11.92 22.904 11.104 20.552 11.104H12.56V28.528H20.552ZM44.456 52V17.296H55.472V24.568C56.048 22.072 57.224 20.152 59 18.808C60.824 17.416 62.84 16.72 65.048 16.72C66.2 16.72 67.16 16.816 67.928 17.008V27.232C66.632 27.088 65.528 27.016 64.616 27.016C58.52 27.016 55.472 30.88 55.472 38.608V52H44.456ZM103.084 47.896C99.6277 51.352 94.9717 53.08 89.1157 53.08C83.2597 53.08 78.5797 51.352 75.0757 47.896C71.5717 44.44 69.8197 40.024 69.8197 34.648C69.8197 29.272 71.5717 24.88 75.0757 21.472C78.5797 18.016 83.2597 16.288 89.1157 16.288C94.9717 16.288 99.6277 18.016 103.084 21.472C106.588 24.88 108.34 29.272 108.34 34.648C108.34 40.024 106.588 44.44 103.084 47.896ZM89.1157 43.72C91.6597 43.72 93.6757 42.88 95.1637 41.2C96.6517 39.52 97.3957 37.336 97.3957 34.648C97.3957 31.96 96.6517 29.776 95.1637 28.096C93.6757 26.416 91.6597 25.576 89.1157 25.576C86.5237 25.576 84.4837 26.416 82.9957 28.096C81.5557 29.776 80.8357 31.96 80.8357 34.648C80.8357 37.336 81.5557 39.52 82.9957 41.2C84.4837 42.88 86.5237 43.72 89.1157 43.72ZM113.593 52V17.296H124.609V22.336C126.673 18.352 130.417 16.36 135.841 16.36C144.289 16.36 148.513 21.088 148.513 30.544V52H137.425V34.144C137.425 31.168 136.945 29.008 135.985 27.664C135.073 26.32 133.513 25.648 131.305 25.648C126.841 25.648 124.609 28.384 124.609 33.856V52H113.593ZM170.071 52.936C165.031 52.936 161.047 51.232 158.119 47.824C155.191 44.416 153.727 40.024 153.727 34.648C153.727 29.368 155.239 25 158.263 21.544C161.287 18.088 165.271 16.36 170.215 16.36C172.663 16.36 174.847 16.888 176.767 17.944C178.687 19 180.127 20.44 181.087 22.264V17.296H192.031V52H181.087V47.104C180.127 48.832 178.639 50.248 176.623 51.352C174.655 52.408 172.471 52.936 170.071 52.936ZM173.239 43.792C175.879 43.792 177.919 42.928 179.359 41.2C180.799 39.472 181.519 37.288 181.519 34.648C181.519 32.056 180.799 29.896 179.359 28.168C177.919 26.44 175.879 25.576 173.239 25.576C170.743 25.576 168.727 26.416 167.191 28.096C165.703 29.776 164.959 31.96 164.959 34.648C164.959 37.336 165.703 39.544 167.191 41.272C168.727 42.952 170.743 43.792 173.239 43.792ZM239.481 7.72V13.624H235.881V52H224.937V47.104C223.977 48.832 222.489 50.248 220.473 51.352C218.505 52.408 216.321 52.936 213.921 52.936C208.881 52.936 204.897 51.232 201.969 47.824C199.041 44.416 197.577 40.024 197.577 34.648C197.577 29.368 199.089 25 202.113 21.544C205.137 18.088 209.121 16.36 214.065 16.36C216.513 16.36 218.697 16.888 220.617 17.944C222.537 19 223.977 20.44 224.937 22.264V19.312H224.865V13.624H216.153V7.72H224.865V1.6H235.881V7.72H239.481ZM217.089 43.792C219.729 43.792 221.769 42.928 223.209 41.2C224.649 39.472 225.369 37.288 225.369 34.648C225.369 32.056 224.649 29.896 223.209 28.168C221.769 26.44 219.729 25.576 217.089 25.576C214.593 25.576 212.577 26.416 211.041 28.096C209.553 29.776 208.809 31.96 208.809 34.648C208.809 37.336 209.553 39.544 211.041 41.272C212.577 42.952 214.593 43.792 217.089 43.792ZM254.879 12.256C253.583 13.552 251.951 14.2 249.983 14.2C248.015 14.2 246.383 13.552 245.087 12.256C243.839 10.96 243.215 9.376 243.215 7.504C243.215 5.584 243.839 3.976 245.087 2.68C246.383 1.384 248.015 0.735999 249.983 0.735999C251.951 0.735999 253.583 1.408 254.879 2.752C256.175 4.048 256.823 5.632 256.823 7.504C256.823 9.376 256.175 10.96 254.879 12.256ZM244.439 52V17.296H255.455V52H244.439ZM0.896 124V73.6H19.904C27.728 73.6 33.968 76.024 38.624 80.872C43.28 85.72 45.608 91.696 45.608 98.8C45.608 105.904 43.28 111.88 38.624 116.728C34.016 121.576 27.776 124 19.904 124H0.896ZM12.56 114.208H18.824C23.528 114.208 27.152 112.72 29.696 109.744C32.288 106.72 33.584 103.072 33.584 98.8C33.584 94.528 32.288 90.904 29.696 87.928C27.152 84.904 23.528 83.392 18.824 83.392H12.56V114.208ZM64.8191 124.936C59.7791 124.936 55.7951 123.232 52.8671 119.824C49.9391 116.416 48.4751 112.024 48.4751 106.648C48.4751 101.368 49.9871 97 53.0111 93.544C56.0351 90.088 60.0191 88.36 64.9631 88.36C67.4111 88.36 69.5951 88.888 71.5151 89.944C73.4351 91 74.8751 92.44 75.8351 94.264V89.296H86.7791V124H75.8351V119.104C74.8751 120.832 73.3871 122.248 71.3711 123.352C69.4031 124.408 67.2191 124.936 64.8191 124.936ZM67.9871 115.792C70.6271 115.792 72.6671 114.928 74.1071 113.2C75.5471 111.472 76.2671 109.288 76.2671 106.648C76.2671 104.056 75.5471 101.896 74.1071 100.168C72.6671 98.44 70.6271 97.576 67.9871 97.576C65.4911 97.576 63.4751 98.416 61.9391 100.096C60.4511 101.776 59.7071 103.96 59.7071 106.648C59.7071 109.336 60.4511 111.544 61.9391 113.272C63.4751 114.952 65.4911 115.792 67.9871 115.792ZM119.613 73.6H130.629V124H119.685V119.104C118.725 120.832 117.237 122.248 115.221 123.352C113.253 124.408 111.069 124.936 108.669 124.936C103.629 124.936 99.6447 123.232 96.7167 119.824C93.7887 116.416 92.3247 112.024 92.3247 106.648C92.3247 101.368 93.8367 97 96.8607 93.544C99.8847 90.088 103.869 88.36 108.813 88.36C111.261 88.36 113.445 88.888 115.365 89.944C117.285 91 118.725 92.44 119.685 94.264V91.312H119.613V73.6ZM111.837 115.792C114.477 115.792 116.517 114.928 117.957 113.2C119.397 111.472 120.117 109.288 120.117 106.648C120.117 104.056 119.397 101.896 117.957 100.168C116.517 98.44 114.477 97.576 111.837 97.576C109.341 97.576 107.325 98.416 105.789 100.096C104.301 101.776 103.557 103.96 103.557 106.648C103.557 109.336 104.301 111.544 105.789 113.272C107.325 114.952 109.341 115.792 111.837 115.792ZM149.134 84.256C147.838 85.552 146.206 86.2 144.238 86.2C142.27 86.2 140.638 85.552 139.342 84.256C138.094 82.96 137.47 81.376 137.47 79.504C137.47 77.584 138.094 75.976 139.342 74.68C140.638 73.384 142.27 72.736 144.238 72.736C146.206 72.736 147.838 73.408 149.134 74.752C150.43 76.048 151.078 77.632 151.078 79.504C151.078 81.376 150.43 82.96 149.134 84.256ZM138.694 124V89.296H149.71V124H138.694ZM157.724 124V73.6H168.74V124H157.724ZM187.337 84.256C186.041 85.552 184.409 86.2 182.441 86.2C180.473 86.2 178.841 85.552 177.545 84.256C176.297 82.96 175.673 81.376 175.673 79.504C175.673 77.584 176.297 75.976 177.545 74.68C178.841 73.384 180.473 72.736 182.441 72.736C184.409 72.736 186.041 73.408 187.337 74.752C188.633 76.048 189.281 77.632 189.281 79.504C189.281 81.376 188.633 82.96 187.337 84.256ZM176.681 138.832C174.617 138.832 172.865 138.592 171.425 138.112V129.616C172.241 129.808 173.129 129.904 174.089 129.904C175.961 129.904 176.897 128.8 176.897 126.592V89.296H187.913V127.96C187.913 131.56 186.953 134.272 185.033 136.096C183.113 137.92 180.329 138.832 176.681 138.832ZM208.379 124.936C204.251 124.936 201.083 123.712 198.875 121.264C196.667 118.768 195.563 115.264 195.563 110.752V89.296H206.723V108.304C206.723 113.2 208.643 115.648 212.483 115.648C216.947 115.648 219.179 113.08 219.179 107.944V89.296H230.123V124H219.179V119.032C217.115 122.968 213.515 124.936 208.379 124.936Z" fill="url(#paint0_linear_194_93)"/>
<defs>
<linearGradient id="paint0_linear_194_93" x1="-4" y1="51.625" x2="180.028" y2="51.625" gradientUnits="userSpaceOnUse">
<stop stop-color="#A9B9F2"/>
<stop offset="1" stop-color="#FDB5E9"/>
</linearGradient>
</defs>
</svg>
